<svg width="589" height="589" viewBox="0 0 589 589" fill="none" xmlns="http://www.w3.org/2000/svg">
<path d="M494.304 247.307C494.304 218.225 470.735 196.901 441.653 196.901C440.328 196.901 439.012 196.966 437.705 197.039V298.099C439.012 298.191 440.328 298.255 441.653 298.255C470.735 298.255 494.304 276.379 494.304 247.297V247.307Z" fill="#256B41"/>
<path d="M518.575 6.71802H73.5305C55.5685 6.71802 38.3422 13.8534 25.6411 26.5544C12.9401 39.2555 5.80469 56.4818 5.80469 74.4438V519.488C5.80713 537.45 12.9433 554.675 25.6438 567.375C38.3443 580.076 55.5692 587.212 73.5305 587.214H518.575C527.469 587.214 536.276 585.463 544.493 582.059C552.71 578.655 560.176 573.667 566.465 567.378C572.753 561.089 577.742 553.623 581.146 545.406C584.549 537.189 586.301 528.382 586.301 519.488V74.4438C586.301 56.4818 579.166 39.2555 566.465 26.5544C553.764 13.8534 536.537 6.71802 518.575 6.71802V6.71802ZM164.678 164.156L437.717 164.22C439.023 164.165 440.339 164.128 441.665 164.128C489.65 164.128 528.542 199.312 528.533 247.297C528.533 295.264 489.641 331.377 441.655 331.377C440.339 331.377 439.023 331.331 437.717 331.275V344.086C437.714 357.012 432.578 369.408 423.438 378.548C414.298 387.688 401.903 392.823 388.977 392.826H213.418C200.492 392.823 188.096 387.688 178.956 378.548C169.817 369.408 164.681 357.012 164.678 344.086V164.147V164.156ZM538.132 405.029C538.129 417.955 532.994 430.351 523.854 439.491C514.714 448.631 502.318 453.767 489.392 453.769H110.177C97.2515 453.767 84.8558 448.631 75.7158 439.491C66.5759 430.351 61.44 417.955 61.4376 405.029V403.336H538.123V405.029H538.132Z" fill="#256B41"/>
</svg>
